<svg width="86" height="60" viewBox="0 0 86 60" fill="none" xmlns="http://www.w3.org/2000/svg">
<path d="M19.9614 55.4116L19.6123 56.7764C19.4007 57.2419 19.1891 57.5063 18.9775 57.5698C18.5755 57.6545 18.3534 57.7179 18.311 57.7603L17.6763 58.2681C17.1896 58.5643 16.904 58.7653 16.8193 58.8711L16.5654 59.1885L15.3911 59.0615L14.0264 59.6963H13.9629L13.8994 59.0615C13.8994 58.9769 13.8571 58.9346 13.7725 58.9346L13.6455 58.998L12.0269 59.4424L10.186 59.0615L4.6001 59.252L2.21973 58.395L2.47363 57.6968L3.29883 55.9512L3.42578 54.2373L3.7749 52.6821V50.27L3.96533 49.3813L3.83838 34.1152L3.96533 32.2109L3.83838 31.5127L3.64795 30.7827L4.94922 30.6558C4.56836 29.8729 4.08171 29.2699 3.48926 28.8467L3.3623 28.3071L3.48926 25.9902L3.23535 21.9595L3.42578 20.3726L3.64795 19.7378L2.98145 12.1841L2.66406 11.4858L2.53711 9.45459L2.21973 8.75635C2.15625 8.71403 2.12451 8.60824 2.12451 8.43896L2.21973 7.70898L2.47363 7.32812L4.15576 7.70898L3.64795 7.32812C3.37288 7.1377 3.23535 6.89437 3.23535 6.59814C3.23535 6.38656 3.25651 6.21729 3.29883 6.09033C3.04492 6.0057 2.89681 5.96338 2.85449 5.96338C2.76986 5.96338 2.55827 6.0057 2.21973 6.09033C2.09277 4.41878 1.89176 3.53011 1.6167 3.42432L0.31543 2.88477L0.632812 2.31348L1.74365 1.74219L2.34668 1.45654C3.17188 1.07568 3.90186 0.885254 4.53662 0.885254C4.66357 0.885254 4.77995 0.906413 4.88574 0.94873L9.55127 1.67871L11.7095 1.80566C12.0903 1.8903 12.4924 2.01725 12.9155 2.18652L14.2803 1.80566L16.5654 1.39307L18.2476 0.821777L18.8506 0.94873C18.7871 1.49886 18.6602 1.87972 18.4697 2.09131C18.3005 2.28174 17.9513 2.48275 17.4224 2.69434C17.4224 3.20215 17.3166 3.53011 17.105 3.67822L15.7402 4.4082L15.1372 4.66211L14.2168 4.18604L12.6616 4.66211L8.18652 4.34473L7.52002 5.36035L7.86914 5.55078V6.09033L7.99609 7.51855L7.74219 17.3892L7.86914 18.3096C7.8903 18.3942 7.90088 18.4788 7.90088 18.5635C7.92204 18.6481 7.93262 18.7962 7.93262 19.0078L7.99609 20.9756L7.80566 22.5942V22.7212L7.93262 24.4033L7.39307 26.1172L7.67871 26.5615L8.12305 27.1963L7.61523 28.561C7.99609 29.09 8.18652 29.5238 8.18652 29.8623L8.05957 30.9097L8.31348 33.8296V33.8931C8.31348 34.2104 8.10189 34.6442 7.67871 35.1943C8.22884 35.9772 8.50391 36.5485 8.50391 36.9082C8.50391 37.0352 8.46159 37.1833 8.37695 37.3525L7.45654 39.3521L8.37695 40.7803C8.71549 41.3516 8.88477 41.743 8.88477 41.9546L8.44043 52.3647L8.82129 55.0942C9.0752 55.0519 9.23389 55.0308 9.29736 55.0308L14.0898 56.459L15.5181 56.2686L16.3115 56.459L16.9463 56.5859C17.4964 55.6338 18.11 55.1577 18.7871 55.1577L19.9614 55.4116ZM65.2837 49.8892L64.5854 50.3652L63.792 50.9365L62.6177 51.2539L60.3643 52.0474C59.7295 52.2166 59.0524 52.3013 58.333 52.3013H57.2222C56.5239 51.2645 56.1113 50.7249 55.9844 50.6826L54.3657 49.6987L53.604 49.064L53.1914 48.5879C52.6413 47.9108 52.3662 47.5617 52.3662 47.5405L52.0806 45.7314L50.8745 45.2871L49.8271 43.7319L48.5894 43.2559L47.8594 42.2402L47.3516 42.0815L46.9072 41.5737L45.8599 40.7168L45.2568 40.0186L44.3682 39.5107L43.2573 38.2095L42.5908 37.543C42.6966 37.2679 42.7495 37.0352 42.7495 36.8447C42.7495 36.3581 42.5697 36.0724 42.21 35.9878L40.6548 35.6704L40.2104 35.1309L38.3696 33.7661L37.481 32.4014L36.3701 31.8301L35.4497 30.9731L34.6245 30.6558L32.5933 29.1006L31.9585 28.9102L31.7363 29.7354L31.4189 30.5288L31.3555 32.0205C31.6517 32.1898 31.7998 32.4014 31.7998 32.6553C31.7998 32.888 31.7786 33.0467 31.7363 33.1313L31.4824 33.8931L31.3555 35.7339L31.2285 37.1621L31.3555 38.0508L31.1016 38.8442L31.5459 39.6377L31.4824 40.2725L31.292 41.9546L31.3555 43.002L32.022 48.1436V48.334C32.022 48.736 31.8844 49.064 31.6094 49.3179L30.9746 49.8892L30.4351 50.3652H29.356C28.9963 50.3652 28.6683 50.5133 28.3721 50.8096L26.6899 52.1743C26.6053 52.259 26.4043 52.3013 26.0869 52.3013C25.6637 52.3013 25.4521 52.1743 25.4521 51.9204C25.4521 51.7723 25.7061 51.1375 26.2139 50.0161C26.4466 49.6141 26.563 49.0745 26.563 48.3975L26.6265 46.2393L27.0073 45.1602L26.8169 42.8115L27.1343 42.2402L27.6421 42.3037C27.9172 42.3037 28.1076 42.2191 28.2134 42.0498C28.3192 41.8594 28.3721 41.5103 28.3721 41.0024L27.9277 40.5898C27.4411 40.2301 27.1978 39.8175 27.1978 39.3521L27.3882 38.1143L27.0708 37.7334L27.0073 36.686L27.0708 35.2578L27.3247 32.814L27.0708 29.7354L27.2612 28.2437L26.8804 27.4185C26.9438 27.1222 27.3353 26.8577 28.0547 26.625V25.4507C27.7585 25.0698 27.4728 24.8794 27.1978 24.8794L27.1343 23.4512L27.0073 20.9756L27.1978 19.7378C26.9227 19.23 26.7323 18.7962 26.6265 18.4365C26.5418 18.0768 26.4995 17.5584 26.4995 16.8813V16.6909V15.4531L26.2773 15.2627L26.4995 12.9141C26.4995 12.3005 26.2985 11.6974 25.8965 11.105L24.6587 10.375L24.7856 9.51807L25.4521 9.32764L25.8965 9.13721C27.2507 8.58708 28.5942 8.28027 29.9272 8.2168L32.2124 8.08984L33.1963 7.96289C33.6195 8.36491 33.9368 8.56592 34.1484 8.56592H34.2119L37.4175 7.96289L38.1157 8.37549C38.1792 8.37549 38.2215 8.38607 38.2427 8.40723C38.285 8.40723 38.3273 8.41781 38.3696 8.43896L39.1631 8.37549L41.3848 8.43896H45.8599L49.2241 9.01025L51.3823 9.13721L53.1279 10.0576L55.0957 10.6289C55.8151 10.8405 56.3547 11.2531 56.7144 11.8667C57.0952 12.4591 57.2856 13.1785 57.2856 14.0249C57.2856 14.7866 57.0952 15.6965 56.7144 16.7544L55.6035 16.564C55.667 17.0929 55.8574 17.4526 56.1748 17.6431L55.8574 18.373L55.1592 19.0713L54.7466 19.6108C54.6619 19.6955 54.3234 19.7378 53.731 19.7378C53.6463 19.8647 53.604 20.0129 53.604 20.1821L53.8579 20.7217L53.4453 21.2295L52.7471 21.6104L51.3188 23.2607L50.2715 23.6416L49.2241 24.3398L48.5894 24.4033C48.3989 24.9746 48.0921 25.366 47.6689 25.5776L46.9072 25.895L45.9233 26.2441H45.1299L43.5747 26.752L43.1304 26.8154H42.8765L41.9561 27.5454C41.7656 27.4185 41.5964 27.355 41.4482 27.355C41.3001 27.355 41.1626 27.3973 41.0356 27.4819C40.9933 27.5666 40.9722 27.6512 40.9722 27.7358C40.9722 27.9263 41.1309 28.159 41.4482 28.4341L41.2261 28.9736C40.8029 29.3333 40.5913 29.6084 40.5913 29.7988C40.5913 29.82 40.6336 29.9364 40.7183 30.1479H41.3848C41.6387 29.8729 41.9561 29.7142 42.3369 29.6719L43.0034 30.4019L42.686 30.6558C42.7495 31.3117 42.9611 31.6396 43.3208 31.6396L43.9556 31.5762L44.6221 32.4014L46.4312 34.4326L47.6689 35.5435L49.0337 37.1621L48.8433 37.9873L50.208 38.7173C50.3773 39.1193 50.5042 39.3732 50.5889 39.479C50.6947 39.5636 51.0226 39.807 51.5728 40.209L53.001 41.7642L53.9849 42.875L54.4927 43.4463V43.8589C54.4927 44.2609 54.5985 44.5994 54.8101 44.8745L56.1113 45.2871L56.7144 45.7314L57.8252 46.7788L61.0625 48.7783L61.729 49.4448C61.8136 49.4448 61.8665 49.4554 61.8877 49.4766C61.93 49.4766 61.9618 49.4871 61.9829 49.5083L63.9824 49.1909H64.0459C64.3421 49.1909 64.7547 49.4237 65.2837 49.8892ZM51.2554 15.1357C51.2554 14.2048 50.9909 13.5488 50.4619 13.168L49.4463 12.3745L48.3354 11.5493L47.2881 11.4858L45.7964 10.9463L45.479 10.8828H44.9395L44.5586 9.99414L43.7017 9.86719L43.2573 10.6289L38.7822 10.248L38.3696 10.5654L37.8618 10.502L33.4502 11.0098H32.7837L32.2759 11.6128C31.8315 11.6128 31.5247 11.7926 31.3555 12.1523C31.1862 12.4909 31.1016 13.2209 31.1016 14.3423L31.165 16.4053L31.2285 17.77V18.627C30.6149 19.1136 30.3081 19.5262 30.3081 19.8647C30.3081 20.3726 30.6995 20.7217 31.4824 20.9121L31.7363 21.6104L31.6094 22.6577V23.5781L31.3555 25.0698C31.4189 25.5776 31.8739 26.0114 32.7202 26.3711L32.6567 26.625L35.5132 26.5615L35.9258 26.9424L36.4971 26.8154L37.5444 26.6885L39.6074 25.895L40.3374 26.1807L41.0356 25.8315L43.8921 24.8159L44.9395 24.0859L47.0977 23.1655L48.6528 20.5947L50.3984 18.6904L50.5254 17.6431L51.1284 16.0244L51.2554 15.1357ZM85.5962 57.6968L85.2788 58.2681L84.168 58.8711L83.5967 59.125C82.7503 59.5059 82.0098 59.6963 81.375 59.6963C81.248 59.6963 81.1423 59.6751 81.0576 59.6328L76.3604 58.9346L74.2339 58.8076C73.7684 58.7018 73.3558 58.5643 72.9961 58.395L71.6313 58.8076L69.3462 59.1885L67.6641 59.7598L67.0928 59.6328C67.1562 59.1462 67.2726 58.7865 67.4419 58.5537C67.6112 58.3421 67.9709 58.12 68.521 57.8872C68.521 57.3794 68.6268 57.0514 68.8384 56.9033L70.2031 56.2051L70.7744 55.9512L71.6948 56.3955L73.25 55.9512L77.7568 56.2686L78.3916 55.2212L78.0742 55.0308V54.5229L77.9473 53.0947L78.2012 43.1924L78.0742 42.3037C78.0742 42.1768 78.0636 42.0604 78.0425 41.9546C78.0425 41.8276 78.0319 41.7007 78.0107 41.5737L77.9473 39.6377L78.1377 37.9873V37.8604L78.0107 36.1782L78.5186 34.4961L78.2646 34.02L77.8203 33.3853L78.3281 32.0205C77.9473 31.5127 77.7568 31.0789 77.7568 30.7192L77.8838 29.6719L77.5981 26.752V26.6885C77.5981 26.4134 77.8203 25.9797 78.2646 25.3872C77.6934 24.6043 77.4077 24.0436 77.4077 23.7051C77.4077 23.5781 77.45 23.43 77.5347 23.2607L78.4551 21.2295L77.5347 19.8013C77.1961 19.2723 77.0269 18.8809 77.0269 18.627L77.4712 8.2168L77.0903 5.4873C76.8364 5.52962 76.6883 5.55078 76.646 5.55078L71.8218 4.12256L70.3936 4.34473L69.6318 4.12256L68.9653 3.99561C68.4364 4.94775 67.8333 5.42383 67.1562 5.42383L65.9819 5.16992L66.2993 3.80518C66.5321 3.36084 66.7542 3.10693 66.9658 3.04346C67.3255 2.95882 67.5371 2.88477 67.6006 2.82129L68.2354 2.31348C68.7008 2.10189 68.9865 1.91146 69.0923 1.74219L69.3462 1.39307L70.5205 1.52002L71.8853 0.885254H71.9487L72.0122 1.52002C72.0122 1.62581 72.0545 1.67871 72.1392 1.67871L72.2661 1.61523L73.9165 1.13916L75.7256 1.52002L81.3115 1.32959L83.7236 2.18652L83.4697 2.88477L82.6128 4.66211L82.4858 6.34424L82.1685 7.89941V10.3115L81.978 11.2319L82.105 26.498L81.978 28.3706L82.105 29.1006L82.2954 29.7988L80.9941 29.9258C81.2269 30.4124 81.4067 30.751 81.5337 30.9414C81.6606 31.1107 81.9569 31.3857 82.4224 31.7666L82.5493 32.2744L82.4224 34.623L82.6763 38.6538L82.4858 40.209L82.2954 40.8755L82.9302 48.3975L83.2793 49.1274L83.4062 51.127L83.7236 51.8569C83.766 51.8993 83.7871 52.005 83.7871 52.1743L83.7236 52.8726L83.4697 53.2852L81.7559 52.8726L82.2954 53.2852C82.5493 53.4967 82.6763 53.7295 82.6763 53.9834C82.6763 54.195 82.6551 54.3748 82.6128 54.5229C82.8667 54.6076 83.0148 54.6499 83.0571 54.6499C83.1629 54.6499 83.3851 54.6076 83.7236 54.5229C83.8294 56.1522 84.0199 57.0409 84.2949 57.189L85.5962 57.6968Z" fill="white"/>
</svg>
